<svg id="LOGOS" xmlns="http://www.w3.org/2000/svg" viewBox="0 0 382.4 233.2"><style>.st0{fill:#FFFFFF;} .st1{fill:#937058;} .st2{fill:#5E4534;} .st3{fill:#D8BAA4;} .st4{fill:#3D3D3D;} .st5{fill:none;stroke:#000000;stroke-width:4.732;stroke-miterlimit:10;} .st6{fill:none;stroke:#000000;stroke-width:2.366;stroke-miterlimit:10;} .st7{fill:#DB8342;stroke:#000000;stroke-width:4.732;stroke-linecap:round;stroke-linejoin:round;} .st8{fill:none;stroke:#000000;stroke-width:4.732;stroke-linecap:round;stroke-linejoin:round;} .st9{fill:#B03C16;} .st10{fill:#FF662B;} .st11{fill:#FFFFFF;stroke:#FFFFFF;stroke-width:1.3328;stroke-miterlimit:10;}</style><path class="st0" d="M374.9 102.2c.4-31.7-31.5-39.3-66.3-41.1-27-1.4-43.1-3-43.1-3l-.2-5.1s27.9-1.9 28.2-28.7C292-2 247-7.6 235.2 10.8c-3.7-3.6-6.3-9-21.6-10.5-37.6.2-40 26.1-41.4 24.3-9.5-11.3-7-10.8-10.6-12.6-11.7-1.7-26.8 37.8-26.8 37.8l-12.8-.2-14.5.5s-3.2-27.9-12.1-39.3C81 13.6 49.8 56.1 48 78.9c-.3 4.2-19.1-5.5-19.1-5.5s-1.4 21.5 7.7 30.9c-3.5 2.9-11.4.7-12.9 1.2 15.8 32.1 53 71.4 104.1 78.7 18.7 2.2 39.7-2.7 52-14.6 8.7 8.6 22.9 12.1 45.1 12.5 46.2-1.3 49.5-30 49.5-30v-.1c51.1-1.2 100-19.9 100.5-49.8z"/><g id="XMLID_7_"><path class="st1" d="M194.8 59.2c.3-8.6 1.9-17.9 7.2-16.9 1.4.4 2.6 1.3 3.7 2.4 3.2 3 6.2 7.5 14.1 6.3 1.7-.2 6.1-1.4 9.7-4.4v24.9h-23.8s-9.4-2.5-10.9-12.3zm38.4-32.4s-7.4-14.9-22.1-16c-36.9.2-25.6 60.4-25.6 60.4s-51.9 94.7 35.1 96.3c44.4-.5 43.6-26.4 43.6-26.4v-.1c24.2-.6 50.7-4.1 70.2-11.2-19.6-32.3 2.8-55.2 2.8-55.2-11.5-3.2-25.4-4.2-38.7-4.9-23.8-1.2-45.8-3.3-45.8-3.3s-10.4-4.6-11.4-10.7c0-7.1.5-14.5 2.3-14.5 3.6 0 6.1 2.5 8.8 2.6 0 0 28.3 5.3 28.5-15.3C281.3 8 259.7 11 259.7 11s-16-.4-26.5 15.8zm-15.6 63.6c0-7.4 6-13.3 13.3-13.3 7.3 0 13.3 6 13.3 13.3s-6 13.3-13.3 13.3c-7.4 0-13.3-6-13.3-13.3zm30.7-9.1c0-2.3 1.9-4.2 4.2-4.2 2.3 0 4.2 1.9 4.2 4.2s-1.9 4.2-4.2 4.2c-2.3 0-4.2-1.9-4.2-4.2z"/><path class="st2" d="M194.8 59.2c1.5 9.9 10.9 12.3 10.9 12.3V44.7c-1.1-1.1-2.3-2-3.7-2.4-5.4-1-6.9 8.3-7.2 16.9z"/><path class="st3" d="M230.9 77.1c-7.4 0-13.3 6-13.3 13.3s6 13.3 13.3 13.3c7.3 0 13.3-6 13.3-13.3s-6-13.3-13.3-13.3zm-1.4 8.1c0-2.3 1.9-4.2 4.2-4.2 2.3 0 4.2 1.9 4.2 4.2 0 2.3-1.9 4.2-4.2 4.2-2.3 0-4.2-1.9-4.2-4.2z"/><path d="M233.7 81c-2.3 0-4.2 1.9-4.2 4.2 0 2.3 1.9 4.2 4.2 4.2 2.3 0 4.2-1.9 4.2-4.2 0-2.3-1.9-4.2-4.2-4.2z"/><path class="st2" d="M241.5 55.7c1 6 11.4 10.7 11.4 10.7l-.3-22.6c-2.7-.1-5.2-2.6-8.8-2.6-1.9 0-2.3 7.4-2.3 14.5z"/><ellipse cx="252.6" cy="81.3" rx="4.2" ry="4.2"/><path class="st4" d="M337.3 74.6s-22.4 23-2.8 55.2c16.8-6.2 28.3-15.1 28.5-27.3.2-15.8-10.6-23.7-25.7-27.9zm-2.8 29.2c0-1.7 1.4-3.1 3.1-3.1 1.7 0 3.1 1.4 3.1 3.1 0 1.7-1.4 3.1-3.1 3.1-1.7 0-3.1-1.4-3.1-3.1zm9.1 0c0-1.7 1.4-3.1 3.1-3.1 1.7 0 3.1 1.4 3.1 3.1 0 1.7-1.4 3.1-3.1 3.1-1.6 0-3.1-1.4-3.1-3.1z"/><circle cx="337.6" cy="103.8" r="3.1"/><ellipse cx="346.8" cy="103.8" rx="3.1" ry="3.1"/><g><path class="st5" d="M194.8 59.2c.3-8.6 1.9-17.9 7.2-16.9 1.4.4 2.6 1.3 3.7 2.4 3.2 3 6.2 7.5 14.1 6.3 1.7-.2 6.1-1.4 9.7-4.4 4.3-3.6 7.5-9.7 3.8-19.7C243.7 10.6 259.7 11 259.7 11s21.6-3 21.3 17.6c-.3 20.6-28.5 15.3-28.5 15.3l.3 22.6s22 2 45.8 3.3c13.3.7 27.2 1.7 38.7 4.9 15 4.2 25.9 12.1 25.6 27.9-.2 12.2-11.7 21.1-28.5 27.3-19.5 7.2-46 10.6-70.2 11.2-8.3.2-16.4.1-23.7-.4-27.9-1.7-39-13-39-13"/><path class="st5" d="M233.2 26.8s-7.4-14.9-22.1-16c-36.9.2-25.6 60.4-25.6 60.4s-51.9 94.7 35.1 96.3c44.4-.5 43.6-26.4 43.6-26.4"/><path class="st5" d="M205.7 44.7v26.8h23.8v-25M337.3 74.6s-22.4 23-2.8 55.2M212.6 115.6s-7 2.4-11.1 12c-1.5 3.7-2.7 8.4-2.8 14.5"/><ellipse class="st6" cx="230.9" cy="90.4" rx="13.3" ry="13.3"/></g></g><path class="st7" d="M57.7 113.7c0 3.4-13.4-.1-14.7.4 18.4 29.2 61.8 57.4 87.5 57.4 32.9 0 59.5-25.8 59.5-57.5 0-4.3-.1-6.8-1.1-11.7-.4-2 3.2-11 2.6-13-.3-1.1-5.1 2.5-5.5 1.4-1-3.1 2.6-11.6 1.4-14.5-.6-1.5-5.9 2.5-6.5 1.1-2.5-5.3-5.2-9.9-7.9-13.2-8.4-10-11.2-34.9-14.4-36.5-2.7-1.3-18.3 32.3-18.3 32.3s-14-.4-19.2-.4c-5.3 0-18.6 1.1-27 3.4-3.6 1-2.8-35.6-6-34.2-2.5 1-28.9 42.2-30.5 62.3-.3 3.7-19.9-4.2-19.9-4.2s8.3 21.9 20 26.9z"/><path d="M120.2 86.8c0 2.3 1.9 4.2 4.2 4.2 2.3 0 4.2-1.9 4.2-4.2 0-2.3-1.9-4.2-4.2-4.2-2.3 0-4.2 1.9-4.2 4.2z"/><circle cx="146.9" cy="81.8" r="4.2"/><path d="M150.2 96.9c-1.4-1.5-14.1-3.1-19.9 1.8-.8 3.2 12 15.1 15 14.1 2.9-1.1 6.3-14.4 4.9-15.9z"/><path class="st8" d="M142.7 104.1s4.4 29.4 23.1 21.6c13.2-5.4 4.5-21.6 4.5-21.6"/><path class="st8" d="M143.5 104.9s7.8 27.5-15.5 27.7c-23.2.2-24.1-21.6-24.1-21.6"/><path class="st9" d="M382.4 196.8c0 20.1-18 36.4-40.2 36.4h-302C18 233.2 0 216.9 0 196.8v-3.9c0-20.1 18-36.4 40.2-36.4h302c22.2 0 40.2 16.3 40.2 36.4v3.9z"/><path class="st10" d="M382.4 192c0 20.1-18 36.4-40.2 36.4h-302C18 228.4 0 212.1 0 192v-3.9c0-20.1 18-36.4 40.2-36.4h128.9l39.4.5 133.8-.5c22.2 0 40.2 16.3 40.2 36.4v3.9z"/><path class="st8" d="M119.8 111H88.1M120.4 123l-31.3 4.9"/><path class="st7" d="M162.6 106.3l26.3-4.1M162.8 119.9l26.6.7"/><path class="st11" d="M42.5 176.7l-6.1 1.1c-.8.1-1.2.7-1 1.5l.4 2.4-6.5 1.2-1.1-6.3c-.5-2.6.2-3.8 2.9-4.2l27.7-5.1c2.7-.5 3.8.3 4.2 2.9l1.1 6.3-6.4 1.2-.4-2.4c-.1-.8-.7-1.2-1.5-1l-6.1 1.1 6.1 33.6-7.3 1.3-6-33.6zM70.7 188.2c0-.9-.4-1.3-1.2-1.3l-2.3-.1.2-6.1 6.9.2c2.7.1 3.8 1.3 3.7 4l-.6 17.8c0 .8.4 1.3 1.2 1.3l2.3.1-.2 6.1-6.9-.2c-2.7-.1-3.8-1.3-3.7-4l.6-17.8zm1-18.8l6.3.2-.2 6.7-6.3-.2.2-6.7zM98.5 180.2c8.3-.5 13.2 5.4 13.6 13.1v2.7l-20 1.1c.8 5.1 4.7 7.6 9.1 7.3 4.7-.3 8-3.7 8-3.7l3.3 4.8s-4.2 4.6-11.4 5c-9.6.5-16-6.1-16.4-14.3-.6-8.9 5.1-15.5 13.8-16zm6.1 11.1c-.3-3.5-2.8-5.7-5.8-5.6-3.7.2-6.2 2.6-6.8 6.2l12.6-.6zM121.5 186.7c.1-.8-.3-1.3-1.1-1.4l-2.3-.3.7-6.1 6.6.8c2.5.3 3.6 1.6 3.4 3.7l-.1.8c-.1.6-.3 1.2-.3 1.2h.1c1.5-2.3 5.1-5.5 10.9-4.7 6.4.8 9.7 4.6 8.7 12.2l-1.4 11.2c-.1.8.3 1.3 1.1 1.4l2.3.3-.7 6-6.8-.8c-2.7-.3-3.7-1.6-3.4-4.3l1.6-13.2c.4-3.5-.2-6-3.8-6.4-3.8-.5-7 1.6-8.5 4.9-.5 1.1-.9 2.4-1 3.8L126 209l-7.1-.9 2.6-21.4zM165.4 180.5c6.3-.5 8.6 2.9 8.6 2.9h.1s-.1-.7-.2-1.7l-.4-5.1c-.1-.9-.6-1.2-1.3-1.2l-2.3.2-.5-6.1 6.9-.5c2.7-.2 3.9.9 4.1 3.6l2.1 29.1c.1.8.5 1.2 1.3 1.2l2.2-.2.4 6.1-6.6.5c-2.6.2-3.7-1-3.8-2.7 0-.6-.1-1.1-.1-1.1h-.1s-2 4.9-8.7 5.4c-7.8.6-13.3-5.2-14-14.2-.4-9.3 4.6-15.7 12.3-16.2zm9.7 14.4c-.3-4.5-3-8.7-7.8-8.4-4 .3-7 3.8-6.6 9.5.4 5.5 3.6 8.9 7.8 8.6 3.7-.3 7.1-3.2 6.6-9.7zM206 192l.9.1v-.2c.4-4.1-1.1-5.8-4.8-6.2-1.3-.1-3.9 0-4 1.6l-.1 1.5-6.7-.6.3-3.1c.5-5.4 8.2-5.2 11.2-4.9 9.6.9 12 6.2 11.4 12.7l-1 10.8c-.1.8.3 1.3 1.1 1.4l2.3.2-.6 6.1-6.5-.6c-2.7-.3-3.5-1.8-3.4-3.5.1-.7.2-1.2.2-1.2h-.1s-2.7 4.9-9.2 4.3c-5.2-.5-9.6-4.2-9-10 .7-9.3 13.3-8.8 18-8.4zm-6.8 12.7c3.9.4 7-3.5 7.3-7l.1-.7-1.2-.1c-3.7-.4-9.7-.4-10.1 3.6-.3 2 .9 3.9 3.9 4.2zM226.4 175l-3.7-.3.5-6.3 18.5 1.4c7.6.6 12.4 6.2 11.9 14.1-.6 7.8-6.3 12.9-13.8 12.3l-7.3-.5-1 13.9-7.4-.6 2.3-34zm12.4 14.7c4.2.3 6.8-2.2 7.1-6.4.3-4.1-1.9-7-6-7.3l-6.1-.5-1 13.7 6 .5zM267.4 181.6c8.2-1.2 13.6 4.2 14.7 11.8.1.8.2 2.7.2 2.7l-19.8 2.9c1.3 5 5.4 7.1 9.7 6.5 4.6-.7 7.6-4.4 7.6-4.4l3.7 4.5s-3.8 5-10.9 6c-9.5 1.4-16.4-4.6-17.6-12.8-1.3-8.9 3.8-16 12.4-17.2zm7.1 10.5c-.6-3.4-3.3-5.4-6.3-5-3.7.5-5.9 3.1-6.2 6.8l12.5-1.8zM289.9 186.4l-3.8-.2.3-5.7 3.9.2.4-7.9 7.1.4-.4 7.9 6.6.3-.3 5.7-6.6-.3-.6 11.7c-.2 4.8 3.5 5.6 5.5 5.7h1.3l-.3 6.3s-.9.1-2.2.1c-4-.2-12-1.8-11.5-11.5l.6-12.7zM310.4 203.6h6.3v6.5h-6.3v-6.5zM331.2 183.3c3.3-.8 9.6-.8 10.6 3.6l.7 3-5.6 1.3-.3-1.4c-.3-1.4-2.6-1.5-4.1-1.1-4.4 1-6.8 5.1-5.7 9.7 1.2 5.2 5.7 7 9.8 6 4.4-1 6.7-5.2 6.7-5.2l3.7 3.8s-2.7 5.5-9.7 7.1c-8.4 2-15.2-2.7-16.9-10.1-1.8-7.3 2-14.7 10.8-16.7zM354.6 180.4c.1-.8-.2-1.2-.9-1.3l-2-.3.9-5.5 6.1 1c2.4.4 3.3 1.6 2.9 4l-4.4 26c-.1.7.2 1.2.9 1.3l2 .3-.9 5.4-6.1-1c-2.4-.4-3.3-1.6-2.9-4l4.4-25.9z"/></svg>